<?xml version="1.0" standalone="no"?>
<!DOCTYPE svg PUBLIC "-//W3C//DTD SVG 20010904//EN"
 "http://www.w3.org/TR/2001/REC-SVG-20010904/DTD/svg10.dtd">
<svg version="1.0" xmlns="http://www.w3.org/2000/svg"
 width="219.000000pt" height="219.000000pt" viewBox="0 0 219.000000 219.000000"
 preserveAspectRatio="xMidYMid meet">
<metadata>
Created by potrace 1.11, written by Peter Selinger 2001-2013
</metadata>
<g transform="translate(0.000000,219.000000) scale(0.100000,-0.100000)"
fill="#000000" stroke="none">
<path d="M1019 1877 c-30 -29 -79 -72 -109 -97 -30 -25 -77 -66 -104 -91 -28
-25 -66 -59 -85 -75 -19 -16 -47 -40 -62 -54 -15 -14 -64 -56 -110 -95 -45
-38 -107 -92 -138 -120 -57 -50 -143 -125 -213 -185 -21 -18 -38 -36 -38 -41
0 -5 71 -9 158 -9 l158 0 0 -120 0 -120 -168 0 -168 0 0 -228 0 -227 159 -3
159 -3 73 44 c100 60 216 125 261 145 33 15 38 22 39 52 0 19 2 127 3 240 2
113 4 210 5 216 1 6 46 11 121 12 l120 1 0 -249 0 -250 126 0 127 0 136 -71
c75 -39 164 -87 198 -105 l61 -34 151 0 151 0 0 228 0 227 -147 -2 c-82 -1
-154 -2 -160 -2 -10 -1 -13 -31 -13 -116 l0 -115 -190 0 -190 0 0 245 0 245
-120 0 -120 0 0 255 c0 140 2 255 3 255 2 0 20 -15 39 -32 19 -18 76 -67 127
-108 52 -41 128 -104 170 -140 42 -36 101 -85 131 -110 30 -25 61 -51 68 -58
65 -61 68 -62 238 -62 l159 1 -48 42 c-27 23 -86 76 -131 117 -46 41 -116 102
-156 135 -41 33 -114 96 -163 140 -50 44 -94 79 -99 77 -5 -1 -7 2 -3 7 3 6
-5 15 -17 22 -13 6 -36 24 -53 40 -16 16 -55 50 -86 76 -31 27 -80 68 -108 93
-53 46 -72 60 -81 60 -3 -1 -30 -24 -61 -53z"/>
</g>
</svg>
